<svg width="48" height="48" viewBox="0 0 48 48" fill="none" xmlns="http://www.w3.org/2000/svg">
<path d="M28.0075 23.5825L22.3925 20.9625C21.9025 20.735 21.5 20.99 21.5 21.5325V26.4675C21.5 27.01 21.9025 27.265 22.3925 27.0375L28.005 24.4175C28.4975 24.1875 28.4975 23.8125 28.0075 23.5825ZM24 0C10.745 0 0 10.745 0 24C0 37.255 10.745 48 24 48C37.255 48 48 37.255 48 24C48 10.745 37.255 0 24 0ZM24 33.75C11.715 33.75 11.5 32.6425 11.5 24C11.5 15.3575 11.715 14.25 24 14.25C36.285 14.25 36.5 15.3575 36.5 24C36.5 32.6425 36.285 33.75 24 33.75Z" fill="black"/>
</svg>
